<?xml version="1.0" encoding="utf-8"?>
<!-- Generator: Adobe Illustrator 16.0.0, SVG Export Plug-In . SVG Version: 6.00 Build 0)  -->
<!DOCTYPE svg PUBLIC "-//W3C//DTD SVG 1.1//EN" "http://www.w3.org/Graphics/SVG/1.1/DTD/svg11.dtd">
<svg version="1.1" id="Layer_1" xmlns="http://www.w3.org/2000/svg" xmlns:xlink="http://www.w3.org/1999/xlink" x="0px" y="0px"
	 viewBox="0 0 4552.329 1216.656" enable-background="new 0 0 4552.329 1216.656"
	 xml:space="preserve">
<rect fill="#EF4136" width="1216.656" height="1216.656"/>
<rect x="1216.656" fill="#FFFFFF" width="3335.672" height="1216.656"/>
<g>
	<g>
		<g>
			<path fill="#414042" d="M3324.938,709.454V423.255h-129.652l-27.156,40.047v0.032c40.312,0,60.476,10.792,60.476,32.348v213.772
				c0,19.641-17.491,30.138-52.436,31.491c-35.356-1.354-53.042-11.851-53.042-31.491V374.463v-27.076v-80.592H2992.96l-26.648,39.3
				c40.313,0,60.476,11.331,60.476,32.425v8.867v27.076v334.991c0,19.662-17.518,30.153-52.519,31.491
				c-36.181-1.338-53.837-11.829-52.956-31.491V423.255h-141.338H2764.5h-111.006l-27.18,40.079h26.381
				c20.148,0,30.235,6.332,30.235,18.984c0,4.221-0.942,7.979-2.812,11.255l-94.932,227.837l-117.893-298.155h-95.925
				l-27.179,40.082c25.659,0.045,42.009,8.247,49.026,24.608l120.945,293.237h90.716l120.949-293.938
				c3.272-7.966,9.728-13.945,19.339-17.931c7.979-3.308,17.363-5.226,28.105-5.785c34.457,1.503,51.703,12.224,51.703,32.153
				v213.772c0,21.098-20.161,31.646-60.475,31.646v40.083h201.812h16.181h185.637h16.176h201.814V741.1
				C3344.391,741.1,3323.992,730.552,3324.938,709.454z"/>
			<path fill="#414042" d="M3744.392,509.559c-4.346-10.492-9.353-20.088-15.007-28.797c-7.457-11.484-16.047-21.426-25.777-29.809
				c-0.887-0.767-1.819-1.473-2.727-2.219c-16.531-13.553-35.747-23.371-57.749-29.359c-23.204-6.321-47.704-9.482-73.484-9.482
				c-66.571,0-116.024,17.205-148.372,51.596s-48.523,83.648-48.523,147.752c0,35.092,5.158,64.461,15.471,88.084
				c10.311,23.635,24.02,42.588,41.139,56.863c17.107,14.27,37.15,24.336,60.126,30.178c22.962,5.834,47.112,8.769,72.429,8.769
				c64.223,0,113.216-16.719,146.967-50.177c33.754-33.459,50.631-80.838,50.631-142.145
				C3759.514,564.312,3754.471,533.9,3744.392,509.559z M3640.749,710.159c-14.942,24.852-40.873,37.271-77.77,37.271
				c-14.952,0-28.147-2.34-39.585-7.034c-11.453-4.679-21.251-13.011-29.428-24.962c-8.174-11.955-14.369-28.241-18.568-48.873
				c-4.209-20.621-6.309-46.873-6.309-78.758c0-42.653,7.934-75.354,23.822-98.098c15.879-22.735,41.337-34.107,76.375-34.107
				c14.006,0,26.733,2.234,38.182,6.682c11.449,4.459,21.369,12.309,29.777,23.559c8.404,11.251,14.829,26.489,19.269,45.71
				c4.44,19.225,6.662,43.598,6.662,73.132C3663.177,650.154,3655.693,685.316,3640.749,710.159z"/>
			<path fill="#414042" d="M4168.061,709.454v-188.46c0-37.024-9.744-63.745-29.234-80.161
				c-19.496-16.407-46.852-24.612-82.078-24.612c-34.291,0-64.826,7.382-91.59,22.147c-26.777,14.77-49.092,33.646-66.939,56.611
				l-0.185-71.725h-129.653l-27.158,40.047v0.032c40.311,0,60.475,10.548,60.475,31.646v214.475
				c0,21.098-20.164,31.646-60.475,31.646v40.083h203.928V741.1c-31.415,0-47.116-10.548-47.116-31.646V564.598
				c5.627-13.119,12.888-25.424,21.8-36.922c8.897-11.481,18.746-21.445,29.533-29.887c10.781-8.437,22.15-14.996,34.107-19.687
				c11.955-4.683,24.016-7.034,36.217-7.034c15.928,0,28.586,6.328,37.967,18.985c9.375,12.661,14.066,33.755,14.066,63.288v156.112
				c0,21.098-15.715,31.646-47.119,31.646v40.083h205.338V741.1C4188.686,741.1,4168.061,730.552,4168.061,709.454z"/>
		</g>
		<g>
			<polygon fill="#414042" points="2868.728,307.522 2820.58,378.529 2820.58,382.248 2916.061,382.248 2916.061,307.522 			"/>
		</g>
		<g>
			<polygon fill="#414042" points="3275.562,307.522 3227.418,378.529 3227.418,382.248 3322.897,382.248 3322.897,307.522 			"/>
		</g>
	</g>
	<g>
		<path fill="#414042" d="M1935.283,455.019c-15.645-15.444-33.745-26.678-54.292-33.699c-20.547-7.021-42.257-10.532-65.141-10.532
			c-33.623,0-62.343,5.738-86.158,17.201c-23.827,11.476-41.565,29.137-53.237,53.008l-5.617-57.57l-104.739-0.839l-27.058,40.858
			c40.59,0.035,60.887,10.785,60.887,32.239v379.234c0,21.019-20.359,31.539-61.082,31.539v40.019h233.618v-40.019
			c-51.021,0-76.526-10.488-76.526-31.44V759.021c10.74,11.233,25.572,19.899,44.494,25.978c18.923,6.077,39.833,9.126,62.727,9.126
			c23.355,0,46.02-3.51,67.982-10.531c21.962-7.021,41.465-18.134,58.513-33.349c17.047-15.204,30.716-34.983,40.996-59.326
			c10.278-24.331,15.424-54.06,15.424-89.164c0-34.16-4.553-63.296-13.658-87.409
			C1963.311,490.244,1950.926,470.465,1935.283,455.019z M1884.271,662.484c-3.751,17.553-9.829,32.537-18.253,44.934
			c-8.425,12.406-19.197,22.114-32.295,29.136c-13.11,7.021-28.786,10.53-47.04,10.53c-18.255,0-33.7-3.51-46.338-10.53
			c-12.637-7.021-22.817-16.729-30.541-29.136c-7.722-12.396-13.229-27.381-16.498-44.934c-3.281-17.553-4.915-36.859-4.915-57.923
			c0-21.062,1.634-40.368,4.915-57.921c3.269-17.552,8.776-32.526,16.498-44.933c7.724-12.397,17.904-22.116,30.541-29.137
			c12.638-7.021,28.083-10.532,46.338-10.532c18.254,0,33.93,3.512,47.04,10.532c13.098,7.021,23.87,16.739,32.295,29.137
			c8.425,12.406,14.502,27.381,18.253,44.933c3.742,17.553,5.617,36.859,5.617,57.921
			C1889.888,625.625,1888.013,644.932,1884.271,662.484z"/>
		<path fill="#414042" d="M2391.083,711.838c0,7.976-1.646,15.128-4.915,21.458c-3.279,6.341-8.194,9.5-14.744,9.5
			c-14.042,0-21.062-10.312-21.062-30.958V537.404c0-25.318-4.562-46.305-13.691-62.957c-0.871-1.594-1.785-3.146-2.718-4.675
			c-8.8-14.439-20.175-26.019-34.14-34.708c-5.685-3.536-11.688-6.688-18.006-9.464c-10.852-4.767-22.637-8.416-35.353-10.94
			c-20.13-3.981-40.962-5.979-62.484-5.979c-26.68,0-50.441,2.863-71.263,8.578c-20.833,5.716-38.264,13.209-52.305,22.467
			c-14.042,9.259-24.814,19.746-32.296,31.441c-7.493,11.705-11.233,23.409-11.233,35.104c0,15.445,4.093,27.501,12.287,36.156
			c8.184,8.666,20.47,12.989,36.859,12.989c16.379,0,28.786-4.092,37.211-12.286c8.423-8.185,12.637-18.836,12.637-31.945
			c0-11.233-3.751-19.889-11.233-25.977c-7.493-6.078-16.619-9.588-27.38-10.533c9.828-7.952,22.818-14.271,38.966-18.954
			c16.146-4.674,36.155-7.021,60.026-7.021c14.043,0,26.209,2.228,36.509,6.669c10.29,4.455,18.836,10.532,25.626,18.255
			c6.78,7.723,11.694,16.74,14.744,27.029c3.039,10.302,4.564,21.305,4.564,32.999v21.765
			c-20.602,5.616-41.314,10.301-62.135,14.041c-20.831,3.753-40.962,7.614-60.378,11.584c-19.428,3.983-37.682,8.426-54.763,13.34
			c-17.091,4.915-32.065,11.585-44.933,20.009c-12.879,8.426-22.938,18.848-30.189,31.244
			c-7.263,12.406-10.883,27.974-10.883,46.688c0,30.893,10.182,55.356,30.542,73.367c20.36,18.014,52.536,27.03,96.535,27.03
			c18.256,0,35.334-2.105,51.253-6.318c15.907-4.213,30.191-9.938,42.827-17.201c12.638-7.251,23.52-15.556,32.648-24.924
			c9.126-9.356,16.257-19.187,21.413-29.487c1.865,9.368,4.443,18.254,7.723,26.679c3.269,8.425,7.953,15.918,14.043,22.467
			c6.076,6.56,13.566,11.826,22.466,15.797c8.885,3.972,19.658,5.968,32.294,5.968c11.233,0,21.645-1.416,31.242-4.213
			c9.59-2.809,17.904-7.503,24.926-14.074c7.021-6.56,12.395-15.237,16.148-26.021c3.74-10.783,5.615-23.915,5.615-39.393v-31.661
			h-32.997V711.838z M2258.389,681.09c-8.896,14.984-22.587,28.203-41.071,39.666c-18.495,11.475-39.668,17.203-63.539,17.203
			c-23.871,0-41.663-4.674-53.358-14.043c-11.704-9.357-17.552-22.466-17.552-39.315c0-14.043,3.511-25.737,10.532-35.105
			c7.02-9.357,17.781-17.661,32.295-24.923c14.502-7.252,32.756-14.042,54.762-20.361c21.996-6.318,47.973-13.219,77.93-20.711
			V681.09z"/>
	</g>
</g>
<g>
	<path fill="none" d="M861.56,419.799c-24.987-12.363-77.458-35.141-147.969-48.598c-35.175-6.713-70.384-10.216-105.263-10.506
		c-34.879,0.29-70.088,3.793-105.263,10.506c-70.512,13.457-122.983,36.234-147.969,48.598
		c-10.427,5.004-10.427,18.273-10.427,18.273c2.991,94.992,30.4,186.41,77.589,266.22V494.885
		c-12.307,4.766-20.231,8.436-22.838,9.68V444.6c25.702-10.135,69.18-24.83,123.456-33.675c28.817-4.698,57.383-7.208,85.453-7.519
		c28.069,0.311,56.635,2.82,85.452,7.519c54.276,8.845,97.754,23.54,123.457,33.675v59.965c-2.607-1.244-10.532-4.914-22.839-9.68
		v209.407c47.188-79.81,74.598-171.228,77.589-266.22C871.987,438.072,871.987,424.803,861.56,419.799z"/>
	<path fill="#FFFFFF" d="M931.504,417.045l-0.043-95.114h-76.566v37.294c-16.079-7.021-32.454-13.336-49.068-18.951
		c-3.24-1.08-7.079-2.32-11.429-3.67v-47.121h-74.87v28.492c-0.565-0.106-1.129-0.213-1.697-0.318
		c-23.5-4.211-47.283-7.062-71.22-8.531v-51.943h-0.846h-37.437h-37.437h-0.846v51.943c-23.937,1.47-47.72,4.32-71.221,8.531
		c-0.568,0.105-1.131,0.212-1.697,0.318v-28.492h-74.869v47.121c-4.35,1.35-8.189,2.59-11.429,3.67
		c-16.615,5.615-32.99,11.93-49.069,18.951v-37.294h-76.566l-0.043,95.114c-0.012,1.207-0.021,2.415-0.021,3.625
		c0,55.92,7.49,111.357,22.264,164.767c14.326,51.797,35.459,101.587,62.813,147.991c15.504,26.302,32.922,51.36,52.052,74.984
		l0.959,1.18c22.408,27.539,47.15,53.105,73.91,76.41v-82.201V472.129c10.872-2.487,22.444-4.797,34.623-6.781
		c13.194-2.152,26.242-3.797,39.141-4.949v408.881v71.87c7.43,4.738,14.959,9.323,22.599,13.742l14.838,8.584l14.837-8.584
		c7.64-4.419,15.169-9.004,22.6-13.742v-71.87V460.398c12.898,1.152,25.946,2.797,39.14,4.949
		c12.179,1.984,23.751,4.294,34.623,6.781v331.672v82.201c26.761-23.305,51.503-48.871,73.911-76.41l0.959-1.18
		c19.13-23.624,36.547-48.683,52.051-74.984c27.354-46.404,48.488-96.194,62.813-147.991
		c14.774-53.409,22.264-108.847,22.264-164.767C931.526,419.46,931.517,418.252,931.504,417.045z M794.397,704.292V494.885
		c12.307,4.766,20.232,8.436,22.839,9.68V444.6c-25.703-10.135-69.18-24.83-123.457-33.675c-28.816-4.698-57.383-7.208-85.452-7.519
		c-28.069,0.311-56.636,2.82-85.453,7.519c-54.275,8.845-97.754,23.54-123.456,33.675v59.965c2.607-1.244,10.532-4.914,22.838-9.68
		v209.407c-47.188-79.81-74.598-171.228-77.589-266.22c0,0,0-13.27,10.427-18.273c24.986-12.363,77.457-35.141,147.969-48.598
		c35.174-6.713,70.383-10.216,105.263-10.506c34.879,0.29,70.088,3.793,105.263,10.506c70.511,13.457,122.982,36.234,147.969,48.598
		c10.427,5.004,10.427,18.273,10.427,18.273C868.996,533.064,841.585,624.482,794.397,704.292z"/>
</g>
</svg>
